<svg width="24" height="24" viewBox="0 0 24 24" fill="none" xmlns="http://www.w3.org/2000/svg">
<g id="Icons/Social/Facebook">
<g id="Swatches/Black">
<path id="Mask" fill-rule="evenodd" clip-rule="evenodd" d="M12.8187 20.8968H4.15216C3.60042 20.8968 3.15344 20.4496 3.15344 19.898V3.8003C3.15344 3.24864 3.60049 2.80159 4.15216 2.80159H20.25C20.8016 2.80159 21.2487 3.24864 21.2487 3.8003V19.898C21.2487 20.4496 20.8015 20.8968 20.25 20.8968H15.6389V13.8894H17.991L18.3432 11.1584H15.6389V9.41489C15.6389 8.62422 15.8584 8.0854 16.9923 8.0854L18.4384 8.08477V5.6422C18.1883 5.60892 17.3298 5.53456 16.3311 5.53456C14.2461 5.53456 12.8187 6.80724 12.8187 9.14443V11.1584H10.4606V13.8894H12.8187V20.8968Z" fill="white"/>
<mask id="mask0" mask-type="alpha" maskUnits="userSpaceOnUse" x="3" y="2" width="19" height="19">
<path id="Mask_2" fill-rule="evenodd" clip-rule="evenodd" d="M12.8187 20.8968H4.15216C3.60042 20.8968 3.15344 20.4496 3.15344 19.898V3.8003C3.15344 3.24864 3.60049 2.80159 4.15216 2.80159H20.25C20.8016 2.80159 21.2487 3.24864 21.2487 3.8003V19.898C21.2487 20.4496 20.8015 20.8968 20.25 20.8968H15.6389V13.8894H17.991L18.3432 11.1584H15.6389V9.41489C15.6389 8.62422 15.8584 8.0854 16.9923 8.0854L18.4384 8.08477V5.6422C18.1883 5.60892 17.3298 5.53456 16.3311 5.53456C14.2461 5.53456 12.8187 6.80724 12.8187 9.14443V11.1584H10.4606V13.8894H12.8187V20.8968Z" fill="white"/>
</mask>
<g mask="url(#mask0)">
<g id="Swatches/Black_2">
<rect id="Rectangle" x="-18.3095" y="-18.3095" width="57.9048" height="57.9048" fill="#151515"/>
</g>
</g>
</g>
</g>
</svg>
