<svg width="24" height="24" viewBox="0 0 24 24" fill="none" xmlns="http://www.w3.org/2000/svg">
<g id="Icons/Social/Twitter">
<g id="Swatches/Black">
<path id="Mask" fill-rule="evenodd" clip-rule="evenodd" d="M22 6.40216C21.3019 6.72009 20.5502 6.93509 19.7618 7.03115C20.5669 6.53711 21.1848 5.75373 21.4758 4.82054C20.722 5.27799 19.8889 5.61078 18.9989 5.78918C18.2897 5.01267 17.2759 4.52778 16.154 4.52778C14.0028 4.52778 12.2574 6.31753 12.2574 8.52471C12.2574 8.83806 12.2909 9.14226 12.3578 9.43503C9.1181 9.26806 6.2464 7.67843 4.32265 5.2574C3.98697 5.8498 3.79515 6.53711 3.79515 7.26902C3.79515 8.65508 4.48324 9.87875 5.52932 10.5958C4.89141 10.5764 4.28919 10.3945 3.76281 10.0972V10.1464C3.76281 12.0836 5.10665 13.6996 6.891 14.0655C6.56424 14.1593 6.21964 14.2062 5.86388 14.2062C5.61296 14.2062 5.36761 14.1822 5.13007 14.1353C5.62634 15.7226 7.06498 16.8788 8.77126 16.9097C7.43746 17.9824 5.75571 18.6217 3.93009 18.6217C3.6156 18.6217 3.30446 18.6034 3 18.5668C4.72524 19.699 6.77502 20.3611 8.97535 20.3611C16.1462 20.3611 20.0662 14.2714 20.0662 8.98902C20.0662 8.81519 20.0629 8.64136 20.0562 8.47096C20.8179 7.90716 21.4792 7.20384 22 6.40216Z" fill="white"/>
<mask id="mask0" mask-type="alpha" maskUnits="userSpaceOnUse" x="3" y="4" width="19" height="17">
<path id="Mask_2" fill-rule="evenodd" clip-rule="evenodd" d="M22 6.40216C21.3019 6.72009 20.5502 6.93509 19.7618 7.03115C20.5669 6.53711 21.1848 5.75373 21.4758 4.82054C20.722 5.27799 19.8889 5.61078 18.9989 5.78918C18.2897 5.01267 17.2759 4.52778 16.154 4.52778C14.0028 4.52778 12.2574 6.31753 12.2574 8.52471C12.2574 8.83806 12.2909 9.14226 12.3578 9.43503C9.1181 9.26806 6.2464 7.67843 4.32265 5.2574C3.98697 5.8498 3.79515 6.53711 3.79515 7.26902C3.79515 8.65508 4.48324 9.87875 5.52932 10.5958C4.89141 10.5764 4.28919 10.3945 3.76281 10.0972V10.1464C3.76281 12.0836 5.10665 13.6996 6.891 14.0655C6.56424 14.1593 6.21964 14.2062 5.86388 14.2062C5.61296 14.2062 5.36761 14.1822 5.13007 14.1353C5.62634 15.7226 7.06498 16.8788 8.77126 16.9097C7.43746 17.9824 5.75571 18.6217 3.93009 18.6217C3.6156 18.6217 3.30446 18.6034 3 18.5668C4.72524 19.699 6.77502 20.3611 8.97535 20.3611C16.1462 20.3611 20.0662 14.2714 20.0662 8.98902C20.0662 8.81519 20.0629 8.64136 20.0562 8.47096C20.8179 7.90716 21.4792 7.20384 22 6.40216Z" fill="white"/>
</mask>
<g mask="url(#mask0)">
<g id="Swatches/Black_2">
<rect id="Rectangle" x="-21.2778" y="-21.3333" width="67.5556" height="67.5556" fill="#151515"/>
</g>
</g>
</g>
</g>
</svg>
